<?xml version="1.0" encoding="utf-8"?>
<!-- Generator: Adobe Illustrator 17.1.0, SVG Export Plug-In . SVG Version: 6.00 Build 0)  -->
<!DOCTYPE svg PUBLIC "-//W3C//DTD SVG 1.1//EN" "http://www.w3.org/Graphics/SVG/1.1/DTD/svg11.dtd">
<svg version="1.1" id="Layer_1" xmlns="http://www.w3.org/2000/svg" xmlns:xlink="http://www.w3.org/1999/xlink" x="0px" y="0px"
	 viewBox="0 0 214 39" enable-background="new 0 0 214 39" xml:space="preserve">
<g>
	<path fill="#939598" d="M89.8,14.9c-6.3,0-11.4,5.2-11.4,11.4s5.2,11.4,11.4,11.4c6.3,0,11.4-5.2,11.4-11.4
		C101.2,19.9,96.2,14.9,89.8,14.9z M89.8,33.3c-3.8,0-6.9-3-6.9-6.9c0-3.8,3.1-6.9,6.9-6.9s6.9,3,6.9,6.9
		C96.7,30.1,93.6,33.3,89.8,33.3z"/>
	<path fill="#939598" d="M113.3,14.9c-6,0-10.9,4.9-10.9,10.9v11.4h4.4v-0.3c0,0,0-1,0-11.2c0-3.5,3-6.4,6.4-6.4
		c3.4,0,6.4,3,6.4,6.4v11.4h4.4v-0.3c0,0,0-0.8,0-11.3C124.1,19.8,119.3,14.9,113.3,14.9z"/>
	<path fill="#939598" d="M130.3,11.5h-4.5v0.3c0,0,0,1.4,0,14.4c0,6.3,5,11.2,11.3,11.2l0,0h4.4v-4.5h-5c-0.4-0.1-6-1.6-6-6.7v-5.8
		h11.2V16h-11.2L130.3,11.5L130.3,11.5L130.3,11.5z"/>
	<path fill="#939598" d="M143,26.6v0.3v10.2h4.5V26.6v-0.3c-0.1-1.6,0.5-3.1,1.6-4.4c1.4-1.4,3.1-2.2,5-2.2h0.3v-4.5h-0.3
		C148,15.3,143,20.3,143,26.6z"/>
	<path fill="#939598" d="M179.3,31.6v-5.4c0-6.3-5.2-11.4-11.4-11.4c-6.3,0-11.4,5.2-11.4,11.4s5.2,11.4,11.4,11.4
		c2,0,3.8-0.4,5.6-1.4l0.5,0.8h5l0.3-0.4l-2.9-4.6h-4.9h-0.1c-1.1,0.7-2.3,1-3.7,1c-3.8,0-6.9-3-6.9-6.9c0-3.8,3-6.9,6.9-6.9
		c3.9,0,6.9,3.1,6.9,6.9v5.4h4.6V31.6z"/>
	<g>
		<path fill="#939598" d="M77.7,19.5c0,10.1-8.3,18.2-18.2,18.2s-18.2-8.3-18.2-18.2S49.4,1.3,59.5,1.3c3.3,0,6.8,1,9.5,2.4l1-1.2
			h7.5l-4.2,7.1h-4.5h-3.1c-1.8-1.1-3.8-1.8-6.1-1.8c-6.4,0-11.6,5.2-11.6,11.6s4.9,11.8,11.4,11.8S71,26,71,19.7v-4.5h6.5
			L77.7,19.5z"/>
	</g>
	<path fill="#939598" d="M9,36.1c-1,0.4-1.9,0.5-2.9,0.5c-3,0-4.9-1.6-4.9-4.2c0-2.6,2-4.4,4.8-4.4c1,0,1.9,0.3,2.9,0.5v1.9
		C8.2,30.3,7.4,30,6.7,30c-1.6,0-2.6,1-2.6,2.3c0,1.5,1,2.4,2.4,2.4c0.7,0,1.2-0.1,2.3-0.5C9,34.2,9,36.1,9,36.1z"/>
	<path fill="#939598" d="M19.2,36c-0.7,0.4-1.8,0.7-2.4,0.7c-1,0-1.2-0.3-1.5-1c-1,0.7-1.8,1-2.7,1c-1.4,0-2.3-1-2.3-2
		c0-2,1.5-2.3,4.9-3.5c0-0.8-0.3-1.4-1.5-1.4c-1,0-2.3,0.5-3,1.4v-2.2c1.1-0.7,2.3-1,3.7-1c2.2,0,3.5,0.7,3.5,2.6v3.8
		c0,0.4,0.1,0.5,0.4,0.5s0.3,0,1-0.4V36L19.2,36z M15.1,32.6c-1.6,0.5-2.3,1-2.3,1.8c0,0.4,0.3,1,1,1c0.4,0,1-0.3,1.5-0.7L15.1,32.6
		L15.1,32.6z"/>
	<path fill="#939598" d="M24.5,28.2V30h-1.2v6.7h-2.6v-6.5h-1.2v-1.8h1.2V28c0-2.4,1.6-3.7,3.7-3.7c0.5,0,1.2,0.1,1.6,0.1v2.2
		c-0.7-0.1-1-0.1-1.1-0.1c-0.8,0-1.5,0.3-1.5,1.5v0.5C23.4,28.2,24.5,28.2,24.5,28.2z"/>
	<path fill="#939598" d="M34,35.6c-1.5,1.1-3,1.1-3.7,1.1c-3,0-4.9-1.6-4.9-4.4c0-2.6,1.8-4.4,4.4-4.4c2.4,0,4.4,1.6,4.4,4.8h-6
		c0.1,1.5,1.1,2.3,2.7,2.3c1,0,1.9-0.3,3.1-1.2C34,33.9,34,35.6,34,35.6z M30,24.3l1.4,2.6H30l-3-2.6H30z M31.9,31.5
		c-0.1-1.1-0.8-1.8-1.8-1.8s-1.6,0.7-1.8,1.8H31.9z"/>
	<path fill="#939598" d="M189.2,28.8c0.8-0.4,1.4-0.7,2.2-0.7c2.3,0,4.1,1.8,4.1,4.4s-1.6,4.4-3.9,4.4c-0.8,0-1.6-0.3-2.3-0.8v0.7
		h-2.6V24.3h2.6L189.2,28.8L189.2,28.8L189.2,28.8z M189.2,34.2c0.5,0.4,1,0.7,1.6,0.7c1.2,0,2-1,2-2.6c0-1.8-1-2.4-2-2.4
		c-0.5,0-1,0.1-1.6,0.5V34.2z"/>
	<path fill="#939598" d="M205.7,36c-0.7,0.4-1.8,0.8-2.4,0.8c-1,0-1.2-0.3-1.5-1c-1,0.7-1.8,1-2.7,1c-1.4,0-2.3-1-2.3-2
		c0-2,1.5-2.3,4.9-3.5c0-0.8-0.3-1.4-1.5-1.4c-1,0-2.3,0.5-3,1.4V29c1.1-0.7,2.3-1,3.7-1c2.2,0,3.5,0.7,3.5,2.6v3.8
		c0,0.4,0.1,0.5,0.4,0.5s0.3,0,1-0.4V36L205.7,36z M201.7,32.6c-1.6,0.5-2.3,1-2.3,1.8c0,0.4,0.3,1,1,1c0.4,0,1-0.3,1.5-0.7
		L201.7,32.6L201.7,32.6z"/>
	<path fill="#939598" d="M209.6,30.7L209.6,30.7c0.8-1.6,1.6-2.6,2.7-2.6c0.5,0,1,0.3,1.6,0.8l-0.7,2.3c-0.7-0.4-1.1-0.5-1.6-0.5
		c-1,0-1.6,1-2.2,2.4v3.5h-2.6v-8.3h2.6v2.3H209.6z"/>
</g>
</svg>
